<mxfile host="app.diagrams.net" agent="Mozilla/5.0 (Windows NT 10.0; Win64; x64) AppleWebKit/537.36 (KHTML, like Gecko) Chrome/132.0.0.0 Safari/537.36" version="26.1.2">
  <diagram name="페이지-1" id="syiTtHeckEfpy0CSojzQ">
    <mxGraphModel dx="1450" dy="1450" grid="1" gridSize="10" guides="1" tooltips="1" connect="1" arrows="1" fold="1" page="0" pageScale="1" pageWidth="827" pageHeight="1169" math="0" shadow="0">
      <root>
        <mxCell id="0" />
        <mxCell id="1" parent="0" />
        <mxCell id="3hFpW6-dM8TQfTSLVfq8-1" value="회원리뷰" style="rounded=0;whiteSpace=wrap;html=1;fontSize=18;fontStyle=1" parent="1" vertex="1">
          <mxGeometry x="-316.81" y="-24" width="88.11" height="55" as="geometry" />
        </mxCell>
        <mxCell id="3hFpW6-dM8TQfTSLVfq8-2" value="리뷰번호" style="ellipse;whiteSpace=wrap;html=1;fontSize=13;" parent="1" vertex="1">
          <mxGeometry x="-437.81" y="-110" width="68.02" height="39" as="geometry" />
        </mxCell>
        <mxCell id="3hFpW6-dM8TQfTSLVfq8-3" value="회원번호" style="ellipse;whiteSpace=wrap;html=1;fontSize=13;" parent="1" vertex="1">
          <mxGeometry x="-437.81" y="-64" width="68.02" height="39" as="geometry" />
        </mxCell>
        <mxCell id="3hFpW6-dM8TQfTSLVfq8-4" value="ISBN13코드" style="ellipse;whiteSpace=wrap;html=1;fontSize=11;" parent="1" vertex="1">
          <mxGeometry x="-437.81" y="-16" width="68.02" height="39" as="geometry" />
        </mxCell>
        <mxCell id="3hFpW6-dM8TQfTSLVfq8-5" value="작성일" style="ellipse;whiteSpace=wrap;html=1;fontSize=13;" parent="1" vertex="1">
          <mxGeometry x="-437.81" y="33" width="68.02" height="39" as="geometry" />
        </mxCell>
        <mxCell id="3hFpW6-dM8TQfTSLVfq8-6" value="리뷰내용" style="ellipse;whiteSpace=wrap;html=1;fontSize=13;" parent="1" vertex="1">
          <mxGeometry x="-437.81" y="82" width="68.02" height="39" as="geometry" />
        </mxCell>
        <mxCell id="3hFpW6-dM8TQfTSLVfq8-7" value="" style="endArrow=none;html=1;rounded=0;exitX=1;exitY=0.5;exitDx=0;exitDy=0;entryX=0;entryY=0.5;entryDx=0;entryDy=0;" parent="1" source="3hFpW6-dM8TQfTSLVfq8-4" target="3hFpW6-dM8TQfTSLVfq8-1" edge="1">
          <mxGeometry width="50" height="50" relative="1" as="geometry">
            <mxPoint x="-369.79" y="21" as="sourcePoint" />
            <mxPoint x="-317.81" y="2" as="targetPoint" />
          </mxGeometry>
        </mxCell>
        <mxCell id="3hFpW6-dM8TQfTSLVfq8-8" value="" style="endArrow=none;html=1;rounded=0;entryX=-0.004;entryY=0.516;entryDx=0;entryDy=0;entryPerimeter=0;" parent="1" target="3hFpW6-dM8TQfTSLVfq8-1" edge="1">
          <mxGeometry width="50" height="50" relative="1" as="geometry">
            <mxPoint x="-369.79" y="56" as="sourcePoint" />
            <mxPoint x="-319.78999999999996" y="6" as="targetPoint" />
          </mxGeometry>
        </mxCell>
        <mxCell id="3hFpW6-dM8TQfTSLVfq8-9" value="" style="endArrow=none;html=1;rounded=0;entryX=0;entryY=0.5;entryDx=0;entryDy=0;exitX=1;exitY=0.5;exitDx=0;exitDy=0;" parent="1" source="3hFpW6-dM8TQfTSLVfq8-3" target="3hFpW6-dM8TQfTSLVfq8-1" edge="1">
          <mxGeometry width="50" height="50" relative="1" as="geometry">
            <mxPoint x="-369.79" y="-42" as="sourcePoint" />
            <mxPoint x="-319.79" y="-92" as="targetPoint" />
          </mxGeometry>
        </mxCell>
        <mxCell id="3hFpW6-dM8TQfTSLVfq8-10" value="" style="endArrow=none;html=1;rounded=0;entryX=0;entryY=0.5;entryDx=0;entryDy=0;exitX=0.997;exitY=0.542;exitDx=0;exitDy=0;exitPerimeter=0;" parent="1" source="3hFpW6-dM8TQfTSLVfq8-6" target="3hFpW6-dM8TQfTSLVfq8-1" edge="1">
          <mxGeometry width="50" height="50" relative="1" as="geometry">
            <mxPoint x="-369.79" y="102" as="sourcePoint" />
            <mxPoint x="-319.78999999999996" y="52" as="targetPoint" />
          </mxGeometry>
        </mxCell>
        <mxCell id="3hFpW6-dM8TQfTSLVfq8-11" value="" style="endArrow=none;html=1;rounded=0;entryX=0;entryY=0.5;entryDx=0;entryDy=0;" parent="1" target="3hFpW6-dM8TQfTSLVfq8-1" edge="1">
          <mxGeometry width="50" height="50" relative="1" as="geometry">
            <mxPoint x="-369.79" y="-89" as="sourcePoint" />
            <mxPoint x="-319.78999999999996" y="-139" as="targetPoint" />
          </mxGeometry>
        </mxCell>
        <mxCell id="3hFpW6-dM8TQfTSLVfq8-12" value="포인트" style="rounded=0;whiteSpace=wrap;html=1;fontSize=19;fontStyle=1" parent="1" vertex="1">
          <mxGeometry x="-609" y="-170" width="88.11" height="55" as="geometry" />
        </mxCell>
        <mxCell id="3hFpW6-dM8TQfTSLVfq8-14" value="회원번호" style="ellipse;whiteSpace=wrap;html=1;fontSize=13;" parent="1" vertex="1">
          <mxGeometry x="-730" y="-186" width="68.02" height="39" as="geometry" />
        </mxCell>
        <mxCell id="3hFpW6-dM8TQfTSLVfq8-16" value="적립 포인트" style="ellipse;whiteSpace=wrap;html=1;fontSize=11;" parent="1" vertex="1">
          <mxGeometry x="-730" y="-137" width="68.02" height="39" as="geometry" />
        </mxCell>
        <mxCell id="3hFpW6-dM8TQfTSLVfq8-19" value="" style="endArrow=none;html=1;rounded=0;entryX=-0.004;entryY=0.516;entryDx=0;entryDy=0;entryPerimeter=0;exitX=1;exitY=0.492;exitDx=0;exitDy=0;exitPerimeter=0;" parent="1" source="3hFpW6-dM8TQfTSLVfq8-16" target="3hFpW6-dM8TQfTSLVfq8-12" edge="1">
          <mxGeometry width="50" height="50" relative="1" as="geometry">
            <mxPoint x="-661.98" y="-90" as="sourcePoint" />
            <mxPoint x="-611.98" y="-140" as="targetPoint" />
          </mxGeometry>
        </mxCell>
        <mxCell id="3hFpW6-dM8TQfTSLVfq8-20" value="" style="endArrow=none;html=1;rounded=0;entryX=0;entryY=0.5;entryDx=0;entryDy=0;exitX=1;exitY=0.5;exitDx=0;exitDy=0;" parent="1" source="3hFpW6-dM8TQfTSLVfq8-14" target="3hFpW6-dM8TQfTSLVfq8-12" edge="1">
          <mxGeometry width="50" height="50" relative="1" as="geometry">
            <mxPoint x="-661.98" y="-188" as="sourcePoint" />
            <mxPoint x="-611.98" y="-238" as="targetPoint" />
          </mxGeometry>
        </mxCell>
        <mxCell id="3hFpW6-dM8TQfTSLVfq8-40" value="배송" style="rounded=0;whiteSpace=wrap;html=1;fontSize=18;fontStyle=1" parent="1" vertex="1">
          <mxGeometry x="116" y="-32" width="88.11" height="55" as="geometry" />
        </mxCell>
        <mxCell id="3hFpW6-dM8TQfTSLVfq8-42" value="배송번호" style="ellipse;whiteSpace=wrap;html=1;fontSize=13;" parent="1" vertex="1">
          <mxGeometry x="-5" y="-98" width="68.02" height="39" as="geometry" />
        </mxCell>
        <mxCell id="3hFpW6-dM8TQfTSLVfq8-43" value="ISBN13코드" style="ellipse;whiteSpace=wrap;html=1;fontSize=11;" parent="1" vertex="1">
          <mxGeometry x="-5" y="-50" width="68.02" height="39" as="geometry" />
        </mxCell>
        <mxCell id="3hFpW6-dM8TQfTSLVfq8-44" value="배송상태" style="ellipse;whiteSpace=wrap;html=1;fontSize=13;" parent="1" vertex="1">
          <mxGeometry x="-5" y="-1" width="68.02" height="39" as="geometry" />
        </mxCell>
        <mxCell id="3hFpW6-dM8TQfTSLVfq8-45" value="주문번호" style="ellipse;whiteSpace=wrap;html=1;fontSize=13;" parent="1" vertex="1">
          <mxGeometry x="-5" y="48" width="68.02" height="39" as="geometry" />
        </mxCell>
        <mxCell id="3hFpW6-dM8TQfTSLVfq8-46" value="" style="endArrow=none;html=1;rounded=0;exitX=1;exitY=0.5;exitDx=0;exitDy=0;entryX=0;entryY=0.5;entryDx=0;entryDy=0;" parent="1" source="3hFpW6-dM8TQfTSLVfq8-43" target="3hFpW6-dM8TQfTSLVfq8-40" edge="1">
          <mxGeometry width="50" height="50" relative="1" as="geometry">
            <mxPoint x="63.01999999999998" y="13" as="sourcePoint" />
            <mxPoint x="115" y="-6" as="targetPoint" />
          </mxGeometry>
        </mxCell>
        <mxCell id="3hFpW6-dM8TQfTSLVfq8-47" value="" style="endArrow=none;html=1;rounded=0;entryX=-0.004;entryY=0.516;entryDx=0;entryDy=0;entryPerimeter=0;" parent="1" target="3hFpW6-dM8TQfTSLVfq8-40" edge="1">
          <mxGeometry width="50" height="50" relative="1" as="geometry">
            <mxPoint x="63" y="19" as="sourcePoint" />
            <mxPoint x="113.02000000000001" y="-2" as="targetPoint" />
          </mxGeometry>
        </mxCell>
        <mxCell id="3hFpW6-dM8TQfTSLVfq8-48" value="" style="endArrow=none;html=1;rounded=0;entryX=0;entryY=0.5;entryDx=0;entryDy=0;exitX=1;exitY=0.5;exitDx=0;exitDy=0;" parent="1" source="3hFpW6-dM8TQfTSLVfq8-42" target="3hFpW6-dM8TQfTSLVfq8-40" edge="1">
          <mxGeometry width="50" height="50" relative="1" as="geometry">
            <mxPoint x="63.01999999999998" y="-50" as="sourcePoint" />
            <mxPoint x="113.01999999999998" y="-100" as="targetPoint" />
          </mxGeometry>
        </mxCell>
        <mxCell id="3hFpW6-dM8TQfTSLVfq8-49" value="" style="endArrow=none;html=1;rounded=0;entryX=0;entryY=0.5;entryDx=0;entryDy=0;exitX=0.997;exitY=0.542;exitDx=0;exitDy=0;exitPerimeter=0;" parent="1" source="3hFpW6-dM8TQfTSLVfq8-45" target="3hFpW6-dM8TQfTSLVfq8-40" edge="1">
          <mxGeometry width="50" height="50" relative="1" as="geometry">
            <mxPoint x="63.01999999999998" y="94" as="sourcePoint" />
            <mxPoint x="113.02000000000001" y="44" as="targetPoint" />
          </mxGeometry>
        </mxCell>
        <mxCell id="3hFpW6-dM8TQfTSLVfq8-141" value="" style="group" parent="1" vertex="1" connectable="0">
          <mxGeometry x="-710" y="-520" width="753.5" height="319" as="geometry" />
        </mxCell>
        <mxCell id="3hFpW6-dM8TQfTSLVfq8-113" value="회원&amp;nbsp;" style="rounded=0;whiteSpace=wrap;html=1;fontStyle=1;fontSize=15;" parent="3hFpW6-dM8TQfTSLVfq8-141" vertex="1">
          <mxGeometry x="324.56" y="259" width="101" height="60" as="geometry" />
        </mxCell>
        <mxCell id="3hFpW6-dM8TQfTSLVfq8-114" value="전화번호" style="ellipse;whiteSpace=wrap;html=1;" parent="3hFpW6-dM8TQfTSLVfq8-141" vertex="1">
          <mxGeometry x="293.81" width="82.5" height="55" as="geometry" />
        </mxCell>
        <mxCell id="3hFpW6-dM8TQfTSLVfq8-115" value="주민번호" style="ellipse;whiteSpace=wrap;html=1;" parent="3hFpW6-dM8TQfTSLVfq8-141" vertex="1">
          <mxGeometry x="196" width="82.5" height="55" as="geometry" />
        </mxCell>
        <mxCell id="3hFpW6-dM8TQfTSLVfq8-116" value="회원이름" style="ellipse;whiteSpace=wrap;html=1;" parent="3hFpW6-dM8TQfTSLVfq8-141" vertex="1">
          <mxGeometry x="98" width="82.5" height="55" as="geometry" />
        </mxCell>
        <mxCell id="3hFpW6-dM8TQfTSLVfq8-117" value="회원번호" style="ellipse;whiteSpace=wrap;html=1;" parent="3hFpW6-dM8TQfTSLVfq8-141" vertex="1">
          <mxGeometry width="82.5" height="55" as="geometry" />
        </mxCell>
        <mxCell id="3hFpW6-dM8TQfTSLVfq8-118" value="우편번호" style="ellipse;whiteSpace=wrap;html=1;" parent="3hFpW6-dM8TQfTSLVfq8-141" vertex="1">
          <mxGeometry x="484" width="82.5" height="55" as="geometry" />
        </mxCell>
        <mxCell id="3hFpW6-dM8TQfTSLVfq8-119" value="핸드폰번호" style="ellipse;whiteSpace=wrap;html=1;" parent="3hFpW6-dM8TQfTSLVfq8-141" vertex="1">
          <mxGeometry x="389" width="82.5" height="55" as="geometry" />
        </mxCell>
        <mxCell id="3hFpW6-dM8TQfTSLVfq8-120" value="주소" style="ellipse;whiteSpace=wrap;html=1;" parent="3hFpW6-dM8TQfTSLVfq8-141" vertex="1">
          <mxGeometry x="579" width="82.5" height="55" as="geometry" />
        </mxCell>
        <mxCell id="3hFpW6-dM8TQfTSLVfq8-121" value="등록일" style="ellipse;whiteSpace=wrap;html=1;" parent="3hFpW6-dM8TQfTSLVfq8-141" vertex="1">
          <mxGeometry x="671" width="82.5" height="55" as="geometry" />
        </mxCell>
        <mxCell id="3hFpW6-dM8TQfTSLVfq8-122" value="" style="endArrow=none;html=1;rounded=0;entryX=0.5;entryY=1;entryDx=0;entryDy=0;exitX=0.5;exitY=0;exitDx=0;exitDy=0;" parent="3hFpW6-dM8TQfTSLVfq8-141" source="3hFpW6-dM8TQfTSLVfq8-113" target="3hFpW6-dM8TQfTSLVfq8-119" edge="1">
          <mxGeometry width="50" height="50" relative="1" as="geometry">
            <mxPoint x="378" y="261" as="sourcePoint" />
            <mxPoint x="453" y="107" as="targetPoint" />
          </mxGeometry>
        </mxCell>
        <mxCell id="3hFpW6-dM8TQfTSLVfq8-124" value="" style="endArrow=none;html=1;rounded=0;entryX=0.5;entryY=1;entryDx=0;entryDy=0;exitX=0.501;exitY=0.01;exitDx=0;exitDy=0;exitPerimeter=0;" parent="3hFpW6-dM8TQfTSLVfq8-141" source="3hFpW6-dM8TQfTSLVfq8-113" edge="1">
          <mxGeometry width="50" height="50" relative="1" as="geometry">
            <mxPoint x="281.94" y="259" as="sourcePoint" />
            <mxPoint x="336.94" y="55" as="targetPoint" />
          </mxGeometry>
        </mxCell>
        <mxCell id="3hFpW6-dM8TQfTSLVfq8-126" value="" style="endArrow=none;html=1;rounded=0;entryX=0.5;entryY=1;entryDx=0;entryDy=0;exitX=0.511;exitY=0.009;exitDx=0;exitDy=0;exitPerimeter=0;" parent="3hFpW6-dM8TQfTSLVfq8-141" source="3hFpW6-dM8TQfTSLVfq8-113" edge="1">
          <mxGeometry width="50" height="50" relative="1" as="geometry">
            <mxPoint x="375" y="258" as="sourcePoint" />
            <mxPoint x="621.5" y="55" as="targetPoint" />
          </mxGeometry>
        </mxCell>
        <mxCell id="3hFpW6-dM8TQfTSLVfq8-127" value="" style="endArrow=none;html=1;rounded=0;entryX=0.5;entryY=1;entryDx=0;entryDy=0;exitX=0.5;exitY=0;exitDx=0;exitDy=0;" parent="3hFpW6-dM8TQfTSLVfq8-141" source="3hFpW6-dM8TQfTSLVfq8-113" edge="1">
          <mxGeometry width="50" height="50" relative="1" as="geometry">
            <mxPoint x="659" y="259" as="sourcePoint" />
            <mxPoint x="714" y="55" as="targetPoint" />
          </mxGeometry>
        </mxCell>
        <mxCell id="3hFpW6-dM8TQfTSLVfq8-128" value="" style="endArrow=none;html=1;rounded=0;entryX=0.5;entryY=1;entryDx=0;entryDy=0;" parent="3hFpW6-dM8TQfTSLVfq8-141" edge="1">
          <mxGeometry width="50" height="50" relative="1" as="geometry">
            <mxPoint x="376.31" y="259" as="sourcePoint" />
            <mxPoint x="527.81" y="56" as="targetPoint" />
          </mxGeometry>
        </mxCell>
        <mxCell id="3hFpW6-dM8TQfTSLVfq8-129" value="" style="endArrow=none;html=1;rounded=0;entryX=0.51;entryY=0.998;entryDx=0;entryDy=0;exitX=0.5;exitY=0;exitDx=0;exitDy=0;entryPerimeter=0;" parent="3hFpW6-dM8TQfTSLVfq8-141" source="3hFpW6-dM8TQfTSLVfq8-113" target="3hFpW6-dM8TQfTSLVfq8-115" edge="1">
          <mxGeometry width="50" height="50" relative="1" as="geometry">
            <mxPoint x="87" y="259" as="sourcePoint" />
            <mxPoint x="238.5" y="56" as="targetPoint" />
          </mxGeometry>
        </mxCell>
        <mxCell id="3hFpW6-dM8TQfTSLVfq8-130" value="" style="endArrow=none;html=1;rounded=0;entryX=0.51;entryY=0.998;entryDx=0;entryDy=0;exitX=0.5;exitY=0;exitDx=0;exitDy=0;entryPerimeter=0;" parent="3hFpW6-dM8TQfTSLVfq8-141" source="3hFpW6-dM8TQfTSLVfq8-113" edge="1">
          <mxGeometry width="50" height="50" relative="1" as="geometry">
            <mxPoint x="275.93" y="259" as="sourcePoint" />
            <mxPoint x="138.93" y="55" as="targetPoint" />
          </mxGeometry>
        </mxCell>
        <mxCell id="3hFpW6-dM8TQfTSLVfq8-131" value="" style="endArrow=none;html=1;rounded=0;entryX=0.51;entryY=0.998;entryDx=0;entryDy=0;exitX=0.5;exitY=0;exitDx=0;exitDy=0;entryPerimeter=0;" parent="3hFpW6-dM8TQfTSLVfq8-141" source="3hFpW6-dM8TQfTSLVfq8-113" edge="1">
          <mxGeometry width="50" height="50" relative="1" as="geometry">
            <mxPoint x="276.07" y="259" as="sourcePoint" />
            <mxPoint x="40" y="55" as="targetPoint" />
          </mxGeometry>
        </mxCell>
        <mxCell id="3hFpW6-dM8TQfTSLVfq8-142" value="" style="group" parent="1" vertex="1" connectable="0">
          <mxGeometry x="-20" y="-410" width="370.5" height="227" as="geometry" />
        </mxCell>
        <mxCell id="3hFpW6-dM8TQfTSLVfq8-132" value="주문" style="rhombus;whiteSpace=wrap;html=1;fontSize=19;fontStyle=1" parent="3hFpW6-dM8TQfTSLVfq8-142" vertex="1">
          <mxGeometry x="134" y="165" width="103.33" height="62" as="geometry" />
        </mxCell>
        <mxCell id="3hFpW6-dM8TQfTSLVfq8-133" value="주민번호" style="ellipse;whiteSpace=wrap;html=1;" parent="3hFpW6-dM8TQfTSLVfq8-142" vertex="1">
          <mxGeometry width="82.5" height="55" as="geometry" />
        </mxCell>
        <mxCell id="3hFpW6-dM8TQfTSLVfq8-134" value="전화번호" style="ellipse;whiteSpace=wrap;html=1;" parent="3hFpW6-dM8TQfTSLVfq8-142" vertex="1">
          <mxGeometry x="97.81" width="82.5" height="55" as="geometry" />
        </mxCell>
        <mxCell id="3hFpW6-dM8TQfTSLVfq8-135" value="핸드폰번호" style="ellipse;whiteSpace=wrap;html=1;" parent="3hFpW6-dM8TQfTSLVfq8-142" vertex="1">
          <mxGeometry x="193" width="82.5" height="55" as="geometry" />
        </mxCell>
        <mxCell id="3hFpW6-dM8TQfTSLVfq8-136" value="우편번호" style="ellipse;whiteSpace=wrap;html=1;" parent="3hFpW6-dM8TQfTSLVfq8-142" vertex="1">
          <mxGeometry x="288" width="82.5" height="55" as="geometry" />
        </mxCell>
        <mxCell id="3hFpW6-dM8TQfTSLVfq8-137" value="" style="endArrow=none;html=1;rounded=0;entryX=0.51;entryY=0.998;entryDx=0;entryDy=0;entryPerimeter=0;exitX=0.5;exitY=0;exitDx=0;exitDy=0;" parent="3hFpW6-dM8TQfTSLVfq8-142" source="3hFpW6-dM8TQfTSLVfq8-132" target="3hFpW6-dM8TQfTSLVfq8-133" edge="1">
          <mxGeometry width="50" height="50" relative="1" as="geometry">
            <mxPoint x="179" y="259" as="sourcePoint" />
            <mxPoint x="42.5" y="56" as="targetPoint" />
          </mxGeometry>
        </mxCell>
        <mxCell id="3hFpW6-dM8TQfTSLVfq8-138" value="" style="endArrow=none;html=1;rounded=0;entryX=0.5;entryY=1;entryDx=0;entryDy=0;exitX=0.5;exitY=0;exitDx=0;exitDy=0;" parent="3hFpW6-dM8TQfTSLVfq8-142" source="3hFpW6-dM8TQfTSLVfq8-132" edge="1">
          <mxGeometry width="50" height="50" relative="1" as="geometry">
            <mxPoint x="179" y="260" as="sourcePoint" />
            <mxPoint x="140.94" y="55" as="targetPoint" />
          </mxGeometry>
        </mxCell>
        <mxCell id="3hFpW6-dM8TQfTSLVfq8-139" value="" style="endArrow=none;html=1;rounded=0;entryX=0.5;entryY=1;entryDx=0;entryDy=0;exitX=0.5;exitY=0.005;exitDx=0;exitDy=0;exitPerimeter=0;" parent="3hFpW6-dM8TQfTSLVfq8-142" source="3hFpW6-dM8TQfTSLVfq8-132" target="3hFpW6-dM8TQfTSLVfq8-135" edge="1">
          <mxGeometry width="50" height="50" relative="1" as="geometry">
            <mxPoint x="179" y="259" as="sourcePoint" />
            <mxPoint x="257" y="107" as="targetPoint" />
          </mxGeometry>
        </mxCell>
        <mxCell id="3hFpW6-dM8TQfTSLVfq8-140" value="" style="endArrow=none;html=1;rounded=0;entryX=0.5;entryY=1;entryDx=0;entryDy=0;exitX=0.498;exitY=-0.001;exitDx=0;exitDy=0;exitPerimeter=0;" parent="3hFpW6-dM8TQfTSLVfq8-142" source="3hFpW6-dM8TQfTSLVfq8-132" edge="1">
          <mxGeometry width="50" height="50" relative="1" as="geometry">
            <mxPoint x="180.31" y="259" as="sourcePoint" />
            <mxPoint x="331.81" y="56" as="targetPoint" />
          </mxGeometry>
        </mxCell>
        <mxCell id="3hFpW6-dM8TQfTSLVfq8-143" value="" style="group" parent="1" vertex="1" connectable="0">
          <mxGeometry x="526" y="180" width="205.01999999999998" height="185" as="geometry" />
        </mxCell>
        <mxCell id="3hFpW6-dM8TQfTSLVfq8-72" value="주문상세" style="rounded=0;whiteSpace=wrap;html=1;fontSize=18;fontStyle=1" parent="3hFpW6-dM8TQfTSLVfq8-143" vertex="1">
          <mxGeometry y="63" width="88.11" height="55" as="geometry" />
        </mxCell>
        <mxCell id="3hFpW6-dM8TQfTSLVfq8-74" value="주문상세번호" style="ellipse;whiteSpace=wrap;html=1;fontSize=11;" parent="3hFpW6-dM8TQfTSLVfq8-143" vertex="1">
          <mxGeometry x="137" width="68.02" height="39" as="geometry" />
        </mxCell>
        <mxCell id="3hFpW6-dM8TQfTSLVfq8-75" value="ISBN13코드" style="ellipse;whiteSpace=wrap;html=1;fontSize=11;" parent="3hFpW6-dM8TQfTSLVfq8-143" vertex="1">
          <mxGeometry x="137" y="48" width="68.02" height="39" as="geometry" />
        </mxCell>
        <mxCell id="3hFpW6-dM8TQfTSLVfq8-76" value="주문번호" style="ellipse;whiteSpace=wrap;html=1;fontSize=13;" parent="3hFpW6-dM8TQfTSLVfq8-143" vertex="1">
          <mxGeometry x="137" y="97" width="68.02" height="39" as="geometry" />
        </mxCell>
        <mxCell id="3hFpW6-dM8TQfTSLVfq8-77" value="주문수량" style="ellipse;whiteSpace=wrap;html=1;fontSize=13;" parent="3hFpW6-dM8TQfTSLVfq8-143" vertex="1">
          <mxGeometry x="137" y="146" width="68.02" height="39" as="geometry" />
        </mxCell>
        <mxCell id="3hFpW6-dM8TQfTSLVfq8-78" value="" style="endArrow=none;html=1;rounded=0;exitX=0;exitY=0.5;exitDx=0;exitDy=0;" parent="3hFpW6-dM8TQfTSLVfq8-143" source="3hFpW6-dM8TQfTSLVfq8-75" edge="1">
          <mxGeometry width="50" height="50" relative="1" as="geometry">
            <mxPoint x="205.01999999999998" y="108" as="sourcePoint" />
            <mxPoint x="88" y="90" as="targetPoint" />
          </mxGeometry>
        </mxCell>
        <mxCell id="3hFpW6-dM8TQfTSLVfq8-79" value="" style="endArrow=none;html=1;rounded=0;entryX=1;entryY=0.5;entryDx=0;entryDy=0;exitX=0;exitY=0.5;exitDx=0;exitDy=0;" parent="3hFpW6-dM8TQfTSLVfq8-143" source="3hFpW6-dM8TQfTSLVfq8-76" target="3hFpW6-dM8TQfTSLVfq8-72" edge="1">
          <mxGeometry width="50" height="50" relative="1" as="geometry">
            <mxPoint x="136" y="139" as="sourcePoint" />
            <mxPoint x="87" y="92" as="targetPoint" />
          </mxGeometry>
        </mxCell>
        <mxCell id="3hFpW6-dM8TQfTSLVfq8-80" value="" style="endArrow=none;html=1;rounded=0;entryX=1.005;entryY=0.48;entryDx=0;entryDy=0;exitX=-0.003;exitY=0.542;exitDx=0;exitDy=0;entryPerimeter=0;exitPerimeter=0;" parent="3hFpW6-dM8TQfTSLVfq8-143" source="3hFpW6-dM8TQfTSLVfq8-74" target="3hFpW6-dM8TQfTSLVfq8-72" edge="1">
          <mxGeometry width="50" height="50" relative="1" as="geometry">
            <mxPoint x="205.01999999999998" y="45" as="sourcePoint" />
            <mxPoint x="255.01999999999998" y="-5" as="targetPoint" />
          </mxGeometry>
        </mxCell>
        <mxCell id="3hFpW6-dM8TQfTSLVfq8-81" value="" style="endArrow=none;html=1;rounded=0;exitX=0.004;exitY=0.553;exitDx=0;exitDy=0;exitPerimeter=0;entryX=1.003;entryY=0.49;entryDx=0;entryDy=0;entryPerimeter=0;" parent="3hFpW6-dM8TQfTSLVfq8-143" source="3hFpW6-dM8TQfTSLVfq8-77" target="3hFpW6-dM8TQfTSLVfq8-72" edge="1">
          <mxGeometry width="50" height="50" relative="1" as="geometry">
            <mxPoint x="205.01999999999998" y="189" as="sourcePoint" />
            <mxPoint x="87" y="91" as="targetPoint" />
          </mxGeometry>
        </mxCell>
        <mxCell id="3hFpW6-dM8TQfTSLVfq8-144" value="" style="group" parent="1" vertex="1" connectable="0">
          <mxGeometry x="526" y="-350" width="205.01999999999998" height="231" as="geometry" />
        </mxCell>
        <mxCell id="3hFpW6-dM8TQfTSLVfq8-61" value="매출" style="rounded=0;whiteSpace=wrap;html=1;fontSize=18;fontStyle=1" parent="3hFpW6-dM8TQfTSLVfq8-144" vertex="1">
          <mxGeometry y="86" width="88.11" height="55" as="geometry" />
        </mxCell>
        <mxCell id="3hFpW6-dM8TQfTSLVfq8-62" value="매출번호" style="ellipse;whiteSpace=wrap;html=1;fontSize=13;" parent="3hFpW6-dM8TQfTSLVfq8-144" vertex="1">
          <mxGeometry x="137" width="68.02" height="39" as="geometry" />
        </mxCell>
        <mxCell id="3hFpW6-dM8TQfTSLVfq8-63" value="주문번호" style="ellipse;whiteSpace=wrap;html=1;fontSize=13;" parent="3hFpW6-dM8TQfTSLVfq8-144" vertex="1">
          <mxGeometry x="137" y="46" width="68.02" height="39" as="geometry" />
        </mxCell>
        <mxCell id="3hFpW6-dM8TQfTSLVfq8-64" value="ISBN13코드" style="ellipse;whiteSpace=wrap;html=1;fontSize=11;" parent="3hFpW6-dM8TQfTSLVfq8-144" vertex="1">
          <mxGeometry x="137" y="94" width="68.02" height="39" as="geometry" />
        </mxCell>
        <mxCell id="3hFpW6-dM8TQfTSLVfq8-65" value="인기도" style="ellipse;whiteSpace=wrap;html=1;fontSize=13;" parent="3hFpW6-dM8TQfTSLVfq8-144" vertex="1">
          <mxGeometry x="137" y="143" width="68.02" height="39" as="geometry" />
        </mxCell>
        <mxCell id="3hFpW6-dM8TQfTSLVfq8-66" value="매출액" style="ellipse;whiteSpace=wrap;html=1;fontSize=13;" parent="3hFpW6-dM8TQfTSLVfq8-144" vertex="1">
          <mxGeometry x="137" y="192" width="68.02" height="39" as="geometry" />
        </mxCell>
        <mxCell id="3hFpW6-dM8TQfTSLVfq8-67" value="" style="endArrow=none;html=1;rounded=0;exitX=0;exitY=0.5;exitDx=0;exitDy=0;" parent="3hFpW6-dM8TQfTSLVfq8-144" source="3hFpW6-dM8TQfTSLVfq8-64" edge="1">
          <mxGeometry width="50" height="50" relative="1" as="geometry">
            <mxPoint x="205.01999999999998" y="131" as="sourcePoint" />
            <mxPoint x="88" y="113" as="targetPoint" />
          </mxGeometry>
        </mxCell>
        <mxCell id="3hFpW6-dM8TQfTSLVfq8-68" value="" style="endArrow=none;html=1;rounded=0;entryX=1;entryY=0.5;entryDx=0;entryDy=0;exitX=0;exitY=0.5;exitDx=0;exitDy=0;" parent="3hFpW6-dM8TQfTSLVfq8-144" source="3hFpW6-dM8TQfTSLVfq8-65" target="3hFpW6-dM8TQfTSLVfq8-61" edge="1">
          <mxGeometry width="50" height="50" relative="1" as="geometry">
            <mxPoint x="136" y="162" as="sourcePoint" />
            <mxPoint x="87" y="115" as="targetPoint" />
          </mxGeometry>
        </mxCell>
        <mxCell id="3hFpW6-dM8TQfTSLVfq8-69" value="" style="endArrow=none;html=1;rounded=0;entryX=1.005;entryY=0.48;entryDx=0;entryDy=0;exitX=-0.003;exitY=0.542;exitDx=0;exitDy=0;entryPerimeter=0;exitPerimeter=0;" parent="3hFpW6-dM8TQfTSLVfq8-144" source="3hFpW6-dM8TQfTSLVfq8-63" target="3hFpW6-dM8TQfTSLVfq8-61" edge="1">
          <mxGeometry width="50" height="50" relative="1" as="geometry">
            <mxPoint x="205.01999999999998" y="68" as="sourcePoint" />
            <mxPoint x="255.01999999999998" y="18" as="targetPoint" />
          </mxGeometry>
        </mxCell>
        <mxCell id="3hFpW6-dM8TQfTSLVfq8-70" value="" style="endArrow=none;html=1;rounded=0;exitX=0.004;exitY=0.553;exitDx=0;exitDy=0;exitPerimeter=0;entryX=1.003;entryY=0.49;entryDx=0;entryDy=0;entryPerimeter=0;" parent="3hFpW6-dM8TQfTSLVfq8-144" source="3hFpW6-dM8TQfTSLVfq8-66" target="3hFpW6-dM8TQfTSLVfq8-61" edge="1">
          <mxGeometry width="50" height="50" relative="1" as="geometry">
            <mxPoint x="205.01999999999998" y="212" as="sourcePoint" />
            <mxPoint x="87" y="114" as="targetPoint" />
          </mxGeometry>
        </mxCell>
        <mxCell id="3hFpW6-dM8TQfTSLVfq8-71" value="" style="endArrow=none;html=1;rounded=0;entryX=1.002;entryY=0.491;entryDx=0;entryDy=0;entryPerimeter=0;exitX=-0.002;exitY=0.487;exitDx=0;exitDy=0;exitPerimeter=0;" parent="3hFpW6-dM8TQfTSLVfq8-144" source="3hFpW6-dM8TQfTSLVfq8-62" target="3hFpW6-dM8TQfTSLVfq8-61" edge="1">
          <mxGeometry width="50" height="50" relative="1" as="geometry">
            <mxPoint x="205.01999999999998" y="21" as="sourcePoint" />
            <mxPoint x="88" y="115" as="targetPoint" />
          </mxGeometry>
        </mxCell>
        <mxCell id="3hFpW6-dM8TQfTSLVfq8-145" value="" style="group" parent="1" vertex="1" connectable="0">
          <mxGeometry x="410" y="310" width="205.01999999999998" height="137" as="geometry" />
        </mxCell>
        <mxCell id="3hFpW6-dM8TQfTSLVfq8-83" value="장르" style="rounded=0;whiteSpace=wrap;html=1;fontSize=18;fontStyle=1" parent="3hFpW6-dM8TQfTSLVfq8-145" vertex="1">
          <mxGeometry y="41" width="88.11" height="55" as="geometry" />
        </mxCell>
        <mxCell id="3hFpW6-dM8TQfTSLVfq8-85" value="장르번호" style="ellipse;whiteSpace=wrap;html=1;fontSize=11;" parent="3hFpW6-dM8TQfTSLVfq8-145" vertex="1">
          <mxGeometry x="137" width="68.02" height="39" as="geometry" />
        </mxCell>
        <mxCell id="3hFpW6-dM8TQfTSLVfq8-86" value="&lt;span style=&quot;font-size: 11px;&quot;&gt;ISBN13코드&lt;/span&gt;" style="ellipse;whiteSpace=wrap;html=1;fontSize=13;" parent="3hFpW6-dM8TQfTSLVfq8-145" vertex="1">
          <mxGeometry x="137" y="49" width="68.02" height="39" as="geometry" />
        </mxCell>
        <mxCell id="3hFpW6-dM8TQfTSLVfq8-87" value="장르명" style="ellipse;whiteSpace=wrap;html=1;fontSize=13;" parent="3hFpW6-dM8TQfTSLVfq8-145" vertex="1">
          <mxGeometry x="137" y="98" width="68.02" height="39" as="geometry" />
        </mxCell>
        <mxCell id="3hFpW6-dM8TQfTSLVfq8-88" value="" style="endArrow=none;html=1;rounded=0;exitX=0;exitY=0.5;exitDx=0;exitDy=0;" parent="3hFpW6-dM8TQfTSLVfq8-145" source="3hFpW6-dM8TQfTSLVfq8-85" edge="1">
          <mxGeometry width="50" height="50" relative="1" as="geometry">
            <mxPoint x="205.01999999999998" y="86" as="sourcePoint" />
            <mxPoint x="88" y="68" as="targetPoint" />
          </mxGeometry>
        </mxCell>
        <mxCell id="3hFpW6-dM8TQfTSLVfq8-89" value="" style="endArrow=none;html=1;rounded=0;entryX=1;entryY=0.5;entryDx=0;entryDy=0;exitX=0;exitY=0.5;exitDx=0;exitDy=0;" parent="3hFpW6-dM8TQfTSLVfq8-145" source="3hFpW6-dM8TQfTSLVfq8-86" target="3hFpW6-dM8TQfTSLVfq8-83" edge="1">
          <mxGeometry width="50" height="50" relative="1" as="geometry">
            <mxPoint x="136" y="117" as="sourcePoint" />
            <mxPoint x="87" y="70" as="targetPoint" />
          </mxGeometry>
        </mxCell>
        <mxCell id="3hFpW6-dM8TQfTSLVfq8-91" value="" style="endArrow=none;html=1;rounded=0;exitX=0.004;exitY=0.553;exitDx=0;exitDy=0;exitPerimeter=0;entryX=1.003;entryY=0.49;entryDx=0;entryDy=0;entryPerimeter=0;" parent="3hFpW6-dM8TQfTSLVfq8-145" source="3hFpW6-dM8TQfTSLVfq8-87" target="3hFpW6-dM8TQfTSLVfq8-83" edge="1">
          <mxGeometry width="50" height="50" relative="1" as="geometry">
            <mxPoint x="205.01999999999998" y="167" as="sourcePoint" />
            <mxPoint x="87" y="69" as="targetPoint" />
          </mxGeometry>
        </mxCell>
        <mxCell id="3hFpW6-dM8TQfTSLVfq8-147" value="" style="group" parent="1" vertex="1" connectable="0">
          <mxGeometry x="13" y="540" width="167.91" height="110" as="geometry" />
        </mxCell>
        <mxCell id="3hFpW6-dM8TQfTSLVfq8-52" value="재고관리" style="rounded=0;whiteSpace=wrap;html=1;fontSize=15;fontStyle=1" parent="3hFpW6-dM8TQfTSLVfq8-147" vertex="1">
          <mxGeometry x="97.15991583377169" y="31.31386861313869" width="70.75008416622829" height="44.160583941605836" as="geometry" />
        </mxCell>
        <mxCell id="3hFpW6-dM8TQfTSLVfq8-54" value="ISBN13코드" style="ellipse;whiteSpace=wrap;html=1;fontSize=10;" parent="3hFpW6-dM8TQfTSLVfq8-147" vertex="1">
          <mxGeometry width="54.618326239778106" height="31.31386861313869" as="geometry" />
        </mxCell>
        <mxCell id="3hFpW6-dM8TQfTSLVfq8-55" value="보관위치" style="ellipse;whiteSpace=wrap;html=1;fontSize=10;" parent="3hFpW6-dM8TQfTSLVfq8-147" vertex="1">
          <mxGeometry y="39.34306569343066" width="54.618326239778106" height="31.31386861313869" as="geometry" />
        </mxCell>
        <mxCell id="3hFpW6-dM8TQfTSLVfq8-56" value="도서수량" style="ellipse;whiteSpace=wrap;html=1;fontSize=10;" parent="3hFpW6-dM8TQfTSLVfq8-147" vertex="1">
          <mxGeometry y="78.68613138686132" width="54.618326239778106" height="31.31386861313869" as="geometry" />
        </mxCell>
        <mxCell id="3hFpW6-dM8TQfTSLVfq8-57" value="" style="endArrow=none;html=1;rounded=0;exitX=1;exitY=0.5;exitDx=0;exitDy=0;entryX=0;entryY=0.5;entryDx=0;entryDy=0;" parent="3hFpW6-dM8TQfTSLVfq8-147" source="3hFpW6-dM8TQfTSLVfq8-54" target="3hFpW6-dM8TQfTSLVfq8-52" edge="1">
          <mxGeometry width="50" height="50" relative="1" as="geometry">
            <mxPoint x="54.61832623977809" y="67.44525547445257" as="sourcePoint" />
            <mxPoint x="96.3569413227488" y="52.18978102189781" as="targetPoint" />
          </mxGeometry>
        </mxCell>
        <mxCell id="3hFpW6-dM8TQfTSLVfq8-58" value="" style="endArrow=none;html=1;rounded=0;entryX=0;entryY=0.5;entryDx=0;entryDy=0;exitX=0.998;exitY=0.481;exitDx=0;exitDy=0;exitPerimeter=0;" parent="3hFpW6-dM8TQfTSLVfq8-147" source="3hFpW6-dM8TQfTSLVfq8-55" target="3hFpW6-dM8TQfTSLVfq8-52" edge="1">
          <mxGeometry width="50" height="50" relative="1" as="geometry">
            <mxPoint x="54.60226674955765" y="72.26277372262774" as="sourcePoint" />
            <mxPoint x="94.76705179092345" y="55.401459854014604" as="targetPoint" />
          </mxGeometry>
        </mxCell>
        <mxCell id="3hFpW6-dM8TQfTSLVfq8-60" value="" style="endArrow=none;html=1;rounded=0;entryX=0;entryY=0.5;entryDx=0;entryDy=0;exitX=0.997;exitY=0.542;exitDx=0;exitDy=0;exitPerimeter=0;" parent="3hFpW6-dM8TQfTSLVfq8-147" source="3hFpW6-dM8TQfTSLVfq8-56" target="3hFpW6-dM8TQfTSLVfq8-52" edge="1">
          <mxGeometry width="50" height="50" relative="1" as="geometry">
            <mxPoint x="54.61832623977809" y="132.48175182481754" as="sourcePoint" />
            <mxPoint x="94.76705179092345" y="92.33576642335767" as="targetPoint" />
          </mxGeometry>
        </mxCell>
        <mxCell id="3hFpW6-dM8TQfTSLVfq8-153" value="" style="edgeStyle=entityRelationEdgeStyle;fontSize=12;html=1;endArrow=ERmandOne;startArrow=ERmandOne;rounded=0;entryX=0;entryY=0.5;entryDx=0;entryDy=0;exitX=0.612;exitY=0.132;exitDx=0;exitDy=0;exitPerimeter=0;" parent="1" source="3hFpW6-dM8TQfTSLVfq8-132" target="3hFpW6-dM8TQfTSLVfq8-61" edge="1">
          <mxGeometry width="100" height="100" relative="1" as="geometry">
            <mxPoint x="345" y="-101" as="sourcePoint" />
            <mxPoint x="445" y="-201" as="targetPoint" />
          </mxGeometry>
        </mxCell>
        <mxCell id="3hFpW6-dM8TQfTSLVfq8-155" value="" style="edgeStyle=entityRelationEdgeStyle;fontSize=12;html=1;endArrow=ERoneToMany;startArrow=ERmandOne;rounded=0;entryX=0;entryY=0.25;entryDx=0;entryDy=0;exitX=0.819;exitY=0.335;exitDx=0;exitDy=0;exitPerimeter=0;" parent="1" source="3hFpW6-dM8TQfTSLVfq8-132" target="3hFpW6-dM8TQfTSLVfq8-72" edge="1">
          <mxGeometry width="100" height="100" relative="1" as="geometry">
            <mxPoint x="392" y="16" as="sourcePoint" />
            <mxPoint x="492" y="-84" as="targetPoint" />
          </mxGeometry>
        </mxCell>
        <mxCell id="3hFpW6-dM8TQfTSLVfq8-175" value="" style="edgeStyle=entityRelationEdgeStyle;fontSize=12;html=1;endArrow=ERmandOne;startArrow=ERmandOne;rounded=0;exitX=1;exitY=1;exitDx=0;exitDy=0;" parent="1" source="3hFpW6-dM8TQfTSLVfq8-132" target="3hFpW6-dM8TQfTSLVfq8-40" edge="1">
          <mxGeometry width="100" height="100" relative="1" as="geometry">
            <mxPoint x="140" y="-79" as="sourcePoint" />
            <mxPoint x="310" y="-20" as="targetPoint" />
          </mxGeometry>
        </mxCell>
        <mxCell id="3hFpW6-dM8TQfTSLVfq8-177" value="" style="edgeStyle=entityRelationEdgeStyle;fontSize=12;html=1;endArrow=ERmandOne;startArrow=ERmandOne;rounded=0;exitX=1;exitY=1;exitDx=0;exitDy=0;entryX=0.996;entryY=0.16;entryDx=0;entryDy=0;entryPerimeter=0;" parent="1" target="3hFpW6-dM8TQfTSLVfq8-166" edge="1">
          <mxGeometry width="100" height="100" relative="1" as="geometry">
            <mxPoint x="204" y="10" as="sourcePoint" />
            <mxPoint x="217" y="204" as="targetPoint" />
            <Array as="points">
              <mxPoint x="210" y="140" />
              <mxPoint x="220" y="140" />
            </Array>
          </mxGeometry>
        </mxCell>
        <mxCell id="3hFpW6-dM8TQfTSLVfq8-148" value="" style="group" parent="1" vertex="1" connectable="0">
          <mxGeometry x="-5" y="124" width="245" height="372" as="geometry" />
        </mxCell>
        <mxCell id="3hFpW6-dM8TQfTSLVfq8-24" value="도서명" style="ellipse;whiteSpace=wrap;html=1;fontSize=13;" parent="3hFpW6-dM8TQfTSLVfq8-148" vertex="1">
          <mxGeometry y="47" width="68.02" height="39" as="geometry" />
        </mxCell>
        <mxCell id="3hFpW6-dM8TQfTSLVfq8-25" value="저자" style="ellipse;whiteSpace=wrap;html=1;fontSize=13;" parent="3hFpW6-dM8TQfTSLVfq8-148" vertex="1">
          <mxGeometry y="93" width="68.02" height="39" as="geometry" />
        </mxCell>
        <mxCell id="3hFpW6-dM8TQfTSLVfq8-26" value="출판사" style="ellipse;whiteSpace=wrap;html=1;fontSize=14;" parent="3hFpW6-dM8TQfTSLVfq8-148" vertex="1">
          <mxGeometry y="141" width="68.02" height="39" as="geometry" />
        </mxCell>
        <mxCell id="3hFpW6-dM8TQfTSLVfq8-27" value="출판일" style="ellipse;whiteSpace=wrap;html=1;fontSize=13;" parent="3hFpW6-dM8TQfTSLVfq8-148" vertex="1">
          <mxGeometry y="190" width="68.02" height="39" as="geometry" />
        </mxCell>
        <mxCell id="3hFpW6-dM8TQfTSLVfq8-28" value="가격" style="ellipse;whiteSpace=wrap;html=1;fontSize=13;" parent="3hFpW6-dM8TQfTSLVfq8-148" vertex="1">
          <mxGeometry y="239" width="68.02" height="39" as="geometry" />
        </mxCell>
        <mxCell id="3hFpW6-dM8TQfTSLVfq8-29" value="" style="endArrow=none;html=1;rounded=0;exitX=1;exitY=0.5;exitDx=0;exitDy=0;entryX=0;entryY=0.5;entryDx=0;entryDy=0;" parent="3hFpW6-dM8TQfTSLVfq8-148" source="3hFpW6-dM8TQfTSLVfq8-26" edge="1">
          <mxGeometry width="50" height="50" relative="1" as="geometry">
            <mxPoint x="68.01999999999998" y="178" as="sourcePoint" />
            <mxPoint x="121" y="160.5" as="targetPoint" />
          </mxGeometry>
        </mxCell>
        <mxCell id="3hFpW6-dM8TQfTSLVfq8-30" value="" style="endArrow=none;html=1;rounded=0;entryX=-0.004;entryY=0.516;entryDx=0;entryDy=0;entryPerimeter=0;" parent="3hFpW6-dM8TQfTSLVfq8-148" edge="1">
          <mxGeometry width="50" height="50" relative="1" as="geometry">
            <mxPoint x="68.01999999999998" y="213" as="sourcePoint" />
            <mxPoint x="120.64755999999988" y="161.3800000000001" as="targetPoint" />
          </mxGeometry>
        </mxCell>
        <mxCell id="3hFpW6-dM8TQfTSLVfq8-31" value="" style="endArrow=none;html=1;rounded=0;entryX=0;entryY=0.5;entryDx=0;entryDy=0;exitX=1;exitY=0.5;exitDx=0;exitDy=0;" parent="3hFpW6-dM8TQfTSLVfq8-148" source="3hFpW6-dM8TQfTSLVfq8-25" edge="1">
          <mxGeometry width="50" height="50" relative="1" as="geometry">
            <mxPoint x="68.01999999999998" y="115" as="sourcePoint" />
            <mxPoint x="121" y="160.5" as="targetPoint" />
          </mxGeometry>
        </mxCell>
        <mxCell id="3hFpW6-dM8TQfTSLVfq8-32" value="" style="endArrow=none;html=1;rounded=0;entryX=0;entryY=0.5;entryDx=0;entryDy=0;exitX=0.997;exitY=0.542;exitDx=0;exitDy=0;exitPerimeter=0;" parent="3hFpW6-dM8TQfTSLVfq8-148" source="3hFpW6-dM8TQfTSLVfq8-28" edge="1">
          <mxGeometry width="50" height="50" relative="1" as="geometry">
            <mxPoint x="68.01999999999998" y="259" as="sourcePoint" />
            <mxPoint x="121" y="160.5" as="targetPoint" />
          </mxGeometry>
        </mxCell>
        <mxCell id="3hFpW6-dM8TQfTSLVfq8-33" value="" style="endArrow=none;html=1;rounded=0;entryX=0;entryY=0.5;entryDx=0;entryDy=0;" parent="3hFpW6-dM8TQfTSLVfq8-148" edge="1">
          <mxGeometry width="50" height="50" relative="1" as="geometry">
            <mxPoint x="68.01999999999998" y="68" as="sourcePoint" />
            <mxPoint x="121" y="160.5" as="targetPoint" />
          </mxGeometry>
        </mxCell>
        <mxCell id="3hFpW6-dM8TQfTSLVfq8-34" value="&lt;span style=&quot;font-size: 11px;&quot;&gt;ISBN13코드&lt;/span&gt;" style="ellipse;whiteSpace=wrap;html=1;fontSize=13;" parent="3hFpW6-dM8TQfTSLVfq8-148" vertex="1">
          <mxGeometry width="68.02" height="39" as="geometry" />
        </mxCell>
        <mxCell id="3hFpW6-dM8TQfTSLVfq8-35" value="도서소개" style="ellipse;whiteSpace=wrap;html=1;fontSize=13;" parent="3hFpW6-dM8TQfTSLVfq8-148" vertex="1">
          <mxGeometry y="286" width="68.02" height="39" as="geometry" />
        </mxCell>
        <mxCell id="3hFpW6-dM8TQfTSLVfq8-36" value="장르번호" style="ellipse;whiteSpace=wrap;html=1;fontSize=13;" parent="3hFpW6-dM8TQfTSLVfq8-148" vertex="1">
          <mxGeometry y="333" width="68.02" height="39" as="geometry" />
        </mxCell>
        <mxCell id="3hFpW6-dM8TQfTSLVfq8-37" value="" style="endArrow=none;html=1;rounded=0;entryX=0;entryY=0.5;entryDx=0;entryDy=0;" parent="3hFpW6-dM8TQfTSLVfq8-148" edge="1">
          <mxGeometry width="50" height="50" relative="1" as="geometry">
            <mxPoint x="68.02" y="306" as="sourcePoint" />
            <mxPoint x="121" y="160.5" as="targetPoint" />
          </mxGeometry>
        </mxCell>
        <mxCell id="3hFpW6-dM8TQfTSLVfq8-38" value="" style="endArrow=none;html=1;rounded=0;entryX=0;entryY=0.5;entryDx=0;entryDy=0;" parent="3hFpW6-dM8TQfTSLVfq8-148" edge="1">
          <mxGeometry width="50" height="50" relative="1" as="geometry">
            <mxPoint x="68.02000000000001" y="354" as="sourcePoint" />
            <mxPoint x="121" y="160.5" as="targetPoint" />
          </mxGeometry>
        </mxCell>
        <mxCell id="3hFpW6-dM8TQfTSLVfq8-39" value="" style="endArrow=none;html=1;rounded=0;entryX=0;entryY=0.5;entryDx=0;entryDy=0;" parent="3hFpW6-dM8TQfTSLVfq8-148" edge="1">
          <mxGeometry width="50" height="50" relative="1" as="geometry">
            <mxPoint x="68.02000000000001" y="20" as="sourcePoint" />
            <mxPoint x="121" y="160.5" as="targetPoint" />
          </mxGeometry>
        </mxCell>
        <mxCell id="3hFpW6-dM8TQfTSLVfq8-166" value="&lt;b&gt;도서&lt;/b&gt;" style="rounded=0;whiteSpace=wrap;html=1;" parent="3hFpW6-dM8TQfTSLVfq8-148" vertex="1">
          <mxGeometry x="121" y="136" width="65" height="50" as="geometry" />
        </mxCell>
        <mxCell id="6pkbQIpV8zBTSY0bG3DP-3" value="" style="edgeStyle=entityRelationEdgeStyle;fontSize=12;html=1;endArrow=ERoneToMany;startArrow=ERmandOne;rounded=0;startSize=4;endSize=4;curved=1;entryX=-0.003;entryY=0.631;entryDx=0;entryDy=0;strokeWidth=1;entryPerimeter=0;" edge="1" parent="3hFpW6-dM8TQfTSLVfq8-148" target="3hFpW6-dM8TQfTSLVfq8-72">
          <mxGeometry width="100" height="100" relative="1" as="geometry">
            <mxPoint x="186" y="155.5" as="sourcePoint" />
            <mxPoint x="531" y="153.25" as="targetPoint" />
          </mxGeometry>
        </mxCell>
        <mxCell id="6pkbQIpV8zBTSY0bG3DP-4" value="" style="edgeStyle=entityRelationEdgeStyle;fontSize=12;html=1;endArrow=ERoneToMany;startArrow=ERmandOne;rounded=0;startSize=4;endSize=4;curved=1;exitX=0;exitY=0.5;exitDx=0;exitDy=0;entryX=1;entryY=0.75;entryDx=0;entryDy=0;strokeWidth=1;" edge="1" parent="1" source="3hFpW6-dM8TQfTSLVfq8-83" target="3hFpW6-dM8TQfTSLVfq8-166">
          <mxGeometry width="100" height="100" relative="1" as="geometry">
            <mxPoint x="310" y="400" as="sourcePoint" />
            <mxPoint x="410" y="300" as="targetPoint" />
            <Array as="points">
              <mxPoint x="230" y="320" />
            </Array>
          </mxGeometry>
        </mxCell>
      </root>
    </mxGraphModel>
  </diagram>
</mxfile>
